<?xml version="1.0"?><svg width="30" height="30" xmlns="http://www.w3.org/2000/svg" xmlns:xlink="http://www.w3.org/1999/xlink">
 <title>music button sm</title>
 <defs>
  <linearGradient id="linearGradient2162">
   <stop stop-color="#000000" id="stop2164" offset="0"/>
   <stop stop-color="#000000" stop-opacity="0" id="stop2166" offset="1"/>
  </linearGradient>
  <linearGradient y2="0.122625" x2="0.789652" y1="0.824027" x1="0.273023" id="linearGradient3219" xlink:href="#linearGradient2162"/>
  <linearGradient id="linearGradient3141">
   <stop stop-color="#004191" id="stop3143" offset="0"/>
   <stop stop-color="#000000" stop-opacity="0" id="stop3145" offset="1"/>
  </linearGradient>
  <linearGradient y2="1.217905" x2="0.447621" y1="0.087411" x1="0.422814" id="linearGradient3217" xlink:href="#linearGradient3141"/>
  <linearGradient id="linearGradient3155">
   <stop stop-color="#ffffff" id="stop3157" offset="0"/>
   <stop stop-color="#ffffff" stop-opacity="0" id="stop3159" offset="1"/>
  </linearGradient>
  <linearGradient y2="0.5" x2="0.999973" y1="0.5" x1="0.00004" id="linearGradient3221" xlink:href="#linearGradient3155"/>
  <linearGradient id="svg_33">
   <stop stop-color="#000000" offset="0" id="svg_62"/>
   <stop stop-color="#959595" offset="1" id="svg_61"/>
  </linearGradient>
  <linearGradient id="svg_34">
   <stop stop-color="#989898" offset="0" id="svg_60"/>
   <stop stop-color="#989898" stop-opacity="0" offset="1" id="svg_59"/>
  </linearGradient>
  <linearGradient id="svg_36">
   <stop stop-color="#989898" offset="0" id="svg_58"/>
   <stop stop-color="#989898" stop-opacity="0" offset="1" id="svg_57"/>
  </linearGradient>
  <linearGradient id="svg_37">
   <stop stop-color="#989898" offset="0" id="svg_56"/>
   <stop stop-color="#989898" stop-opacity="0" offset="1" id="svg_55"/>
  </linearGradient>
  <linearGradient id="svg_35">
   <stop stop-color="#bdbdbd" offset="0" id="svg_54"/>
   <stop stop-color="#bdbdbd" stop-opacity="0" offset="1" id="svg_53"/>
  </linearGradient>
  <radialGradient xlink:href="#svg_37" r="7.395038" id="svg_31" gradientUnits="userSpaceOnUse" gradientTransform="matrix(2.277654,1.814482,-1.554691,2.313904,142.4194,-168.8005)" fy="98.385017" fx="16.073729" cy="98.385017" cx="16.073729"/>
  <radialGradient xlink:href="#svg_36" r="7.395038" id="svg_29" gradientUnits="userSpaceOnUse" gradientTransform="matrix(0.507302,2.992059,-2.503033,0.629017,307.6498,-19.14050)" fy="97.809586" fx="16.886499" cy="97.809586" cx="16.886499"/>
  <linearGradient y2="32.225971" y1="9.139755" xlink:href="#svg_35" x2="76.947044" x1="78.296486" id="svg_27" gradientUnits="userSpaceOnUse" gradientTransform="translate(9.233222,-0.911224)"/>
  <linearGradient y2="138.12024" y1="14.790077" xlink:href="#svg_34" x2="46.517174" x1="46.517174" id="svg_25" gradientUnits="userSpaceOnUse" gradientTransform="translate(8.756123,-0.911224)"/>
  <linearGradient y2="23.64933" y1="120.76648" xlink:href="#svg_33" x2="93.931129" x1="36.44677" id="svg_23" gradientUnits="userSpaceOnUse" gradientTransform="translate(9.009143,-1.079904)"/>
  <symbol xmlns:xlink="http://www.w3.org/1999/xlink" width="100.00000pt" id="svg_63" height="100.00000pt">

   <g id="svg_20">
    <g transform="translate(6.122286e-3,-4.974124e-3)" id="svg_21">
     <path fill="#000000" id="svg_32" d="m99.625,12.09375c-0.519615,-0.152019 -1.153061,-0.050137 -1.9375,0.40625c-5.5158,3.060722 -11.945206,3.577219 -16.65625,4.125c-4.661598,0.542032 -8.404625,0.696035 -13,0.5c-4.227749,-0.180351 -6.984097,-0.405178 -9.46875,-0.875c-1.79084,-0.338629 -4.173798,-1.514032 -5.21875,-0.40625c2.937679,6.7609 4.059738,16.223526 3.90625,21.46875c-0.287346,9.735233 -1.282101,16.833767 -2.71875,25.0625c-1.401695,8.028519 -4.190468,15.294785 -6.75,22.8125c-1.843334,5.993607 -5.729404,0.008049 -8.5,-1.21875c-3.993172,-1.76815 -7.508053,-1.889725 -11.375,0c-3.866949,1.889725 -6.030685,4.67659 -7,9.0625c-0.947517,4.287285 1.244001,9.598328 4.8125,12.5c3.466002,2.818329 8.592617,3.196808 12.75,1.875c4.1031,-1.420982 7.8032,-5.292763 9.34375,-9.3125c0.788738,-1.869446 1.253502,-2.696732 2.1875,-5.65625c0.933998,-2.959518 2.180363,-7.296593 3.21875,-11c1.911026,-6.815666 4.562874,-13.026131 6.21875,-28.375c0.332081,-2.701607 1.0462,-9.274216 1.1875,-15.75c1.04303,0.087482 2.243259,0.464016 3.28125,0.625c2.430069,0.376888 5.138878,0.508575 9.25,0.53125c4.468613,0.024643 8.089165,-0.284653 12.59375,-1c4.148438,-0.658787 9.649826,-1.413479 14.5625,-4c0.370621,5.844303 0.248642,14.929588 -0.1875,19.28125c-0.799789,7.980015 -2.98658,21.395599 -5.15625,29.0625c-1.094116,3.866226 -2.258713,6.78981 -3.46875,9.96875c-1.599976,2.888077 -5.250877,-1.872421 -7.65625,-2.9375c-3.993172,-1.768143 -7.508049,-1.920982 -11.375,-0.03125c-3.866951,1.889732 -6.061935,4.707832 -7.03125,9.09375c-0.947517,4.287277 1.244003,9.567078 4.8125,12.46875c3.465996,2.818329 8.592613,3.196808 12.75,1.875c4.103096,-1.420982 7.8032,-5.292747 9.34375,-9.3125c4.173141,-11.238159 6.392204,-19.501076 7.4375,-23.78125c1.45195,-5.945328 4.206444,-18.912952 4.5,-35.15625c0.054932,-3.039303 0.051537,-11.363003 -0.625,-18.1875c-0.256866,-2.591154 -2.472397,-13.262693 -4.03125,-13.71875zm-0.40625,12.21875c0.491974,1.939365 0.599548,3.696526 0.78125,5.71875c-5.084732,2.914078 -10.929115,3.715115 -15.28125,4.40625c-4.504585,0.715347 -8.125137,0.993393 -12.59375,0.96875c-4.111115,-0.022675 -6.819931,-0.154366 -9.25,-0.53125c-0.682053,-0.105782 -1.439095,-0.327171 -2.1875,-0.5c-0.026905,-2.398083 -0.165165,-4.697735 -0.46875,-6.6875c6.390015,0.467484 8.941513,0.517183 11.75,0.5625c4.822945,0.076462 10.776413,-0.558067 14.3125,-1.15625c4.369446,-0.739155 10.163689,-2.283669 12.9375,-2.78125z"/>
     <path fill="url(#svg_31)" stroke-width="2.5" stroke-linecap="round" stroke-linejoin="round" stroke-miterlimit="4" id="svg_30" d="m35.500374,98.292336c-4.174234,3.759537 -9.835819,4.211845 -12.637468,1.009613c-2.801651,-3.202232 -1.687668,-8.852371 2.486565,-12.611916c4.174232,-3.759537 9.835817,-4.211845 12.637465,-1.009613c2.79203,3.191238 1.698933,8.811302 -2.445847,12.575089"/>
     <path fill="url(#svg_29)" stroke-width="2.5" stroke-linecap="round" stroke-linejoin="round" stroke-miterlimit="4" id="svg_28" d="m80.049164,103.003693c-4.174232,3.759537 -9.835823,4.211845 -12.637466,1.009621c-2.801651,-3.20224 -1.687668,-8.852379 2.486565,-12.611923c4.174232,-3.759537 9.835815,-4.211845 12.637466,-1.009613c2.792023,3.191238 1.698929,8.811302 -2.445847,12.575096"/>
     <path fill="url(#svg_27)" id="svg_26" d="m98.889473,12.807526c-0.242989,0.049133 -0.524673,0.17118 -0.875,0.375c-5.656952,3.139048 -12.182304,3.641853 -16.875,4.1875c-4.684166,0.544657 -8.472389,0.697144 -13.09375,0.5c-1.481873,-0.063215 -2.603439,-0.135675 -3.78125,-0.21875c4.412292,2.272215 8.658585,3.41617 12.912292,4.396141c11.563538,2.664013 17.175171,0.943047 25.181458,0.291359c-0.365105,-1.911404 -0.809235,-4.134905 -1.34375,-6c-0.296585,-1.034854 -0.608643,-1.94558 -0.90625,-2.59375c-0.148804,-0.324084 -0.31691,-0.558144 -0.4375,-0.71875c-0.12059,-0.160605 -0.196495,-0.199273 -0.15625,-0.1875c-0.166557,-0.048727 -0.382011,-0.080382 -0.625,-0.03125z"/>
     <path fill="url(#svg_25)" id="svg_24" d="m55.256123,15.807526c-0.294945,-0.020628 -0.566582,-0.006273 -0.9375,0.03125c-0.249142,0.025206 -0.379177,0.11756 -0.53125,0.21875c2.872089,6.825733 3.965637,16.048042 3.8125,21.28125c-0.287998,9.757404 -1.280735,16.888447 -2.71875,25.125c-1.408203,8.065811 -4.102352,15.219536 -6.65625,22.71875c0.365658,-0.350296 1.318455,-2.047256 1.809639,-3.556534c2.542778,-7.813354 4.330631,-11.074013 6.721611,-26.037216c-0.000393,-0.010414 -0.000393,-0.020836 0,-0.03125l0.0625,-0.25c0.00164,-0.010406 -0.001637,-0.020844 0,-0.03125c2.304485,-14.636074 2.335346,-27.42461 -0.71875,-39.28125c-0.318832,-0.081821 -0.608772,-0.171065 -0.84375,-0.1875z"/>
     <path fill="url(#svg_23)" id="svg_22" d="m99.875,24.84375c-0.011909,0.008808 -0.022446,0.019341 -0.03125,0.03125c-0.010384,-0.001093 -0.020859,-0.001095 -0.03125,0c-0.011909,0.008808 -0.022446,0.019341 -0.03125,0.03125c-0.001091,0.010389 -0.001091,0.020863 0,0.03125c-0.011909,0.008808 -0.022446,0.019341 -0.03125,0.03125c-0.001091,0.010389 -0.001091,0.020863 0,0.03125c-0.001091,0.010389 -0.001091,0.020863 0,0.03125c0.400574,1.802416 0.537323,4.058174 0.75,6.51696c-0.480209,-0.082579 -1.005722,-0.007191 -1.6875,0.4375c-5.237198,3.264015 -8.737831,3.521027 -13.290199,4.243961c-4.504585,0.715347 -10.866188,0.951221 -15.334801,0.926579c-3.275146,-0.018063 -5.288567,-0.189022 -7.34375,-0.40625c2.100739,0.344692 4.217834,0.623672 7.625,0.8125c4.46183,0.247276 7.96386,0.272762 12.498489,-0.217239c4.582733,-0.495201 10.983177,-1.06501 16.376511,-4.064011c0.536095,-0.312752 1.083031,-0.41906 1.3125,-0.25c0.390831,5.848133 0.256218,15.166519 -0.1875,19.59375c-0.801041,7.992474 -2.980354,21.404846 -5.15625,29.09375c-1.013397,3.581032 -2.044968,6.342941 -3.15625,9.25c-0.011909,0.008804 -0.022446,0.019341 -0.03125,0.03125c-0.001091,0.010384 -0.001091,0.020859 0,0.03125c-0.001091,0.010384 -0.001091,0.020859 0,0.03125c0.008812,0.011909 0.019341,0.022446 0.03125,0.03125c-0.001091,0.010384 -0.001091,0.020859 0,0.03125c0.008812,0.011909 0.019341,0.022446 0.03125,0.03125c0.010391,0.001091 0.020859,0.001091 0.03125,0c0.008812,0.011909 0.019341,0.022446 0.03125,0.03125c0.010391,0.001091 0.020859,0.001091 0.03125,0c0.010391,0.001091 0.020859,0.001091 0.03125,0c0.011909,-0.008812 0.022446,-0.019341 0.03125,-0.03125c0.010391,0.001091 0.020859,0.001091 0.03125,0c0.011909,-0.008812 0.022446,-0.019341 0.03125,-0.03125c0.463669,-0.629623 1.113686,-1.609703 1.78125,-3.4375c1.616257,-4.425301 4.110275,-13.793594 6.1875,-28.0625l0.03125,-0.28125c0.961166,-7.049339 1.255821,-14.450146 1.09375,-22.0625c-0.037323,-1.752975 -0.498787,-8.511778 -0.65625,-9.5c-0.185577,-1.164736 -0.437767,-2.079138 -0.6875,-2.65625c-0.027039,-0.062498 -0.038292,-0.095415 -0.0625,-0.125c-0.0242,-0.029583 -0.04911,-0.038919 -0.0625,-0.0625c0.001099,-0.010387 0.001099,-0.020863 0,-0.03125c-0.008812,-0.011909 -0.019341,-0.022442 -0.03125,-0.03125c-0.010384,-0.001093 -0.020859,-0.001095 -0.03125,0c-0.008804,-0.011909 -0.019341,-0.022442 -0.03125,-0.03125c-0.010384,-0.001093 -0.020859,-0.001095 -0.03125,0c-0.010384,-0.001093 -0.020859,-0.001095 -0.03125,0z"/>
    </g>
   </g>
  </symbol>
 </defs>
 <metadata id="metadata2193">image/svg+xml</metadata>
 <g>
  <title>Layer 1</title>
  <path fill="url(#linearGradient3217)" stroke="url(#linearGradient3219)" d="m27.035988,15.460736a12.3753,13.746113 0 1 1 -24.750608,0a12.3753,13.746113 0 1 1 24.750608,0z" id="path3201"/>
  <use x="8.769549" y="17.571727" transform="matrix(0.208196, 0, 0, 0.159506, -1.11927, 2.44682)" xlink:href="#svg_63" id="svg_64"/>
  <path fill="url(#linearGradient3221)" d="m14.787407,9.695424a0.043232,0.023538 0 1 1 -0.086463,-7.390113a0.043232,0.023538 0 1 1 0.086463,7.390113z" id="path3215"/>
 </g>
</svg>