<?xml version="1.0" encoding="UTF-8" standalone="no"?>
<!-- Created with Inkscape (http://www.inkscape.org/) -->
<svg xmlns:dc="http://purl.org/dc/elements/1.1/" xmlns:cc="http://creativecommons.org/ns#" xmlns:rdf="http://www.w3.org/1999/02/22-rdf-syntax-ns#" xmlns:svg="http://www.w3.org/2000/svg" xmlns="http://www.w3.org/2000/svg" xmlns:xlink="http://www.w3.org/1999/xlink" xmlns:sodipodi="http://sodipodi.sourceforge.net/DTD/sodipodi-0.dtd" xmlns:inkscape="http://www.inkscape.org/namespaces/inkscape" width="440.15628" height="301.57034" id="svg3087" version="1.1" inkscape:version="0.48.1 r9760" sodipodi:docname="New document 2">
  <defs id="defs3089">
    <filter inkscape:collect="always" id="filter3918" color-interpolation-filters="sRGB">
      <feGaussianBlur inkscape:collect="always" stdDeviation="7.7521868" id="feGaussianBlur3920"/>
    </filter>
    <linearGradient inkscape:collect="always" id="linearGradient3792">
      <stop style="stop-color:#ffffff;stop-opacity:1;" offset="0" id="stop3794"/>
      <stop style="stop-color:#ffffff;stop-opacity:0;" offset="1" id="stop3796"/>
    </linearGradient>
    <filter inkscape:collect="always" id="filter3842" color-interpolation-filters="sRGB">
      <feGaussianBlur inkscape:collect="always" stdDeviation="6.707143" id="feGaussianBlur3844"/>
    </filter>
    <filter inkscape:collect="always" id="filter3898" color-interpolation-filters="sRGB">
      <feGaussianBlur inkscape:collect="always" stdDeviation="8.5738367" id="feGaussianBlur3900"/>
    </filter>
    <linearGradient inkscape:collect="always" xlink:href="#linearGradient3792" id="linearGradient3202" gradientUnits="userSpaceOnUse" x1="-685.71429" y1="-101.92353" x2="-340" y2="232.36218" gradientTransform="matrix(0.57759177,0,-0.19739795,0.52940949,620.4995,336.90341)"/>
    <linearGradient inkscape:collect="always" xlink:href="#linearGradient3792" id="linearGradient3209" gradientUnits="userSpaceOnUse" x1="-685.71429" y1="-101.92353" x2="-340" y2="232.36218" gradientTransform="matrix(0.57759177,0,0,0.57759177,539.12209,317.16561)"/>
    <inkscape:perspective sodipodi:type="inkscape:persp3d" inkscape:vp_x="0 : 0.5 : 1" inkscape:vp_y="0 : 1000 : 0" inkscape:vp_z="1 : 0.5 : 1" inkscape:persp3d-origin="0.5 : 0.33333333 : 1" id="perspective2824">
		</inkscape:perspective>
    <inkscape:perspective sodipodi:type="inkscape:persp3d" inkscape:vp_x="0 : 526.18109 : 1" inkscape:vp_y="0 : 1000 : 0" inkscape:vp_z="744.09448 : 526.18109 : 1" inkscape:persp3d-origin="372.04724 : 350.78739 : 1" id="perspective2511">
		</inkscape:perspective>
    <filter inkscape:collect="always" id="filter3998" color-interpolation-filters="sRGB">
      <feGaussianBlur inkscape:collect="always" stdDeviation="1.1069514" id="feGaussianBlur4000"/>
    </filter>
    <linearGradient inkscape:collect="always" xlink:href="#linearGradient3792" id="linearGradient4024" gradientUnits="userSpaceOnUse" gradientTransform="matrix(0.57759177,0,0,0.57759177,539.12209,317.16561)" x1="-685.71429" y1="-101.92353" x2="-340" y2="232.36218"/>
    <linearGradient inkscape:collect="always" xlink:href="#linearGradient3792" id="linearGradient4026" gradientUnits="userSpaceOnUse" gradientTransform="matrix(0.57759177,0,-0.19739795,0.52940949,620.4995,336.90341)" x1="-685.71429" y1="-101.92353" x2="-340" y2="232.36218"/>
  </defs>
  <sodipodi:namedview id="base" pagecolor="#ffffff" bordercolor="#666666" borderopacity="1.0" inkscape:pageopacity="0.0" inkscape:pageshadow="2" inkscape:zoom="0.39743946" inkscape:cx="382.87034" inkscape:cy="-109.91376" inkscape:document-units="px" inkscape:current-layer="layer1" showgrid="false" fit-margin-top="0" fit-margin-left="0" fit-margin-right="0" fit-margin-bottom="0" inkscape:window-width="1280" inkscape:window-height="745" inkscape:window-x="-3" inkscape:window-y="-3" inkscape:window-maximized="1"/>
  <g inkscape:label="Layer 1" inkscape:groupmode="layer" id="layer1" transform="translate(-25.101874,-30.098879)">
    <g id="g4002" transform="translate(-148.45028,-231.4818)">
      <path transform="matrix(0.57759177,0,0,0.57759177,539.12209,315.6463)" inkscape:connector-curvature="0" id="path3904" d="m -560.66979,-69.678198 c -25.26239,0 -45.59371,20.33137 -45.59371,45.59375 l 0,36.46875 0,264.500048 0,127.6874 559.374959,0 0,-127.6874 0,-264.500048 0,-36.46875 c 0,-25.26238 -20.36261,-45.59375 -45.625,-45.59375 l -468.156249,0 z" style="fill:#000000;fill-opacity:0.98952876;stroke:#000000;stroke-width:10.63999462;stroke-linecap:round;stroke-miterlimit:4;stroke-opacity:1;stroke-dasharray:none;filter:url(#filter3918)"/>
      <path inkscape:connector-curvature="0" id="rect3759" d="m 218.25666,278.28564 c -14.59134,0 -26.32993,11.73859 -26.32993,26.32994 l 0,21.06779 0,152.77511 0,73.74688 323.08431,0 0,-73.74688 0,-152.77511 0,-21.06779 c 0,-14.59135 -11.7578,-26.32994 -26.34915,-26.32994 l -270.40523,0 z" style="fill:#000000;fill-opacity:0.98952876;stroke:#000000;stroke-width:6.14557314;stroke-linecap:round;stroke-miterlimit:4;stroke-opacity:1;stroke-dasharray:none"/>
      <path style="fill:url(#linearGradient4024);fill-opacity:1;stroke:none" d="m 218.25666,278.28564 c -14.59134,0 -26.32993,11.73859 -26.32993,26.32994 l 0,21.06779 0,152.77511 0,73.74688 323.08431,0 0,-73.74688 0,-152.77511 0,-21.06779 c 0,-14.59135 -11.7578,-26.32994 -26.34915,-26.32994 l -270.40523,0 z" id="path3790" inkscape:connector-curvature="0"/>
      <path style="fill:#803300;fill-opacity:0.98952876;stroke:none" d="m 226.38968,286.35212 c -13.71371,0 -24.74623,11.03252 -24.74623,24.7462 l 0,19.80056 0,143.58571 0,69.31101 303.65085,0 0,-69.31101 0,-143.58571 0,-19.80056 c 0,-13.71368 -11.05057,-24.7462 -24.76426,-24.7462 l -254.14036,0 z" id="path3766" inkscape:connector-curvature="0"/>
      <g transform="matrix(0.57759177,0,0,0.57759177,870.82479,-21.007187)" id="g3869">
        <g id="g3846" transform="translate(-614.28571,-65.142858)">
          <rect style="fill:#000000;fill-opacity:0.98952876;stroke:none;filter:url(#filter3842)" id="rect3840" width="525.71429" height="368.57144" x="-528.57141" y="640.93359" ry="0"/>
          <rect ry="0" y="640.93359" x="-528.57141" height="368.57144" width="525.71429" id="rect3761" style="fill:#ffffff;fill-opacity:0.98952876;stroke:none"/>
        </g>
        <g transform="matrix(0.91113424,0,0,0.94296632,-638.11667,-6.6489914)" id="g3850">
          <rect ry="0" y="640.93359" x="-528.57141" height="368.57144" width="525.71429" id="rect3852" style="fill:#000000;fill-opacity:0.98952876;stroke:none;filter:url(#filter3842)"/>
          <rect style="fill:#ffffff;fill-opacity:0.98952876;stroke:none" id="rect3854" width="525.71429" height="368.57144" x="-528.57141" y="640.93359" ry="0"/>
        </g>
        <g id="g3863" transform="matrix(0.80871091,0,0,0.86672694,-665.33201,72.021364)">
          <rect style="fill:#000000;fill-opacity:0.98952876;stroke:none;filter:url(#filter3842)" id="rect3865" width="525.71429" height="368.57144" x="-528.57141" y="640.93359" ry="0"/>
          <rect ry="0" y="640.93359" x="-528.57141" height="368.57144" width="525.71429" id="rect3867" style="fill:#ffffff;fill-opacity:0.98952876;stroke:none"/>
        </g>
      </g>
      <path transform="matrix(0.57759177,0,0,0.57759177,539.12209,315.6463)" inkscape:connector-curvature="0" id="path3882" d="m -397.34821,-36.316964 c -25.26239,0 -52.52257,18.62623 -61.15625,41.7812497 l -12.46875,33.4375003 -90.40625,242.437504 -43.625,117.0312 559.374996,0 L -2.0044643,281.33929 88.401786,38.901786 100.87054,5.4642857 C 109.50422,-17.690734 96.070425,-36.316964 70.808036,-36.316964 l -468.156246,0 z" style="fill:#000000;fill-opacity:0.98952876;stroke:#000000;stroke-width:10.18654156;stroke-linecap:round;stroke-miterlimit:4;stroke-opacity:1;stroke-dasharray:none;filter:url(#filter3898)"/>
      <path style="fill:#000000;fill-opacity:0.98952876;stroke:#000000;stroke-width:5.8836627;stroke-linecap:round;stroke-miterlimit:4;stroke-opacity:1;stroke-dasharray:none" d="m 312.92171,301.26678 c -14.59135,0 -30.34173,10.75936 -35.32847,24.13351 l -7.20014,19.31034 -52.21247,140.03072 -25.20376,67.59497 323.08432,0 25.20376,-67.59497 52.21247,-140.03072 7.20013,-19.31034 c 4.98675,-13.37415 -2.75927,-24.13351 -17.35061,-24.13351 l -270.40523,0 z" id="path3807" inkscape:connector-curvature="0"/>
      <path inkscape:connector-curvature="0" id="path3809" d="m 312.92171,301.26678 c -14.59135,0 -30.34173,10.75936 -35.32847,24.13351 l -7.20014,19.31034 -52.21247,140.03072 -25.20376,67.59497 323.08432,0 25.20376,-67.59497 52.21247,-140.03072 7.20013,-19.31034 c 4.98675,-13.37415 -2.75927,-24.13351 -17.35061,-24.13351 l -270.40523,0 z" style="fill:url(#linearGradient4026);fill-opacity:1;stroke:none"/>
      <path inkscape:connector-curvature="0" id="path3811" d="m 318.29791,308.66036 c -13.7137,0 -28.5167,10.11219 -33.20349,22.68189 l -6.76705,18.14881 -49.0719,131.6079 -23.68775,63.52914 303.65085,0 23.68775,-63.52914 49.0719,-131.6079 6.76704,-18.14881 c 4.6868,-12.5697 -2.59329,-22.68189 -16.30698,-22.68189 l -254.14037,0 z" style="fill:#803300;fill-opacity:0.98952876;stroke:none"/>
      <g style="opacity:0.22666668;fill:#d45500" id="layer1-1" transform="matrix(0.77249227,0.38635211,-0.38635211,0.77249227,285.39081,295.79594)" inkscape:label="Layer 1">
        <path style="fill:#d45500" inkscape:connector-curvature="0" id="path2542" d="m 196.366,-40.078 c -3.753,0.416 -7.067,3.339 -8.229,7.359 l -2.274,7.761 -16.859,-9.701 c -1.348,-0.779 -2.752,-1.279 -4.148,-1.405 -2.094,-0.19 -4.306,0.619 -5.687,2.208 -1.379,1.588 -1.94,3.683 -1.94,5.955 v 17.795 l -17.06,-9.768 c -1.851,-1.058 -3.575,-1.754 -5.62,-1.472 -1.656,0.229 -3.345,1.531 -3.947,3.144 -0.602,1.613 -0.487,3.263 0,4.951 l 24.753,85.633 c 1.551,5.369 6.157,10.782 11.173,13.648 l 49.173,28.099 c 1.318,0.753 2.681,1.306 4.014,1.472 4.677,-0.255 6.913,-2.909 8.964,-7.359 L 257.983,6.685 c 1.766,-6.116 -0.718,-12.992 -6.155,-16.19 l -49.574,-29.168 c -1.38,-0.812 -2.833,-1.284 -4.281,-1.405 -0.55,-0.046 -1.07,-0.06 -1.607,0 z m 1.071,5.753 c 0.56,0.046 1.22,0.218 1.873,0.602 l 49.574,29.168 c 2.695,1.586 4.458,6.242 3.479,9.634 L 227.141,92.452 V 52.178 l 9.5,-32.849 -9.5,-5.553 V 9.094 c 0,-6.091 -3.562,-12.277 -8.831,-15.32 l -27.229,-15.722 2.676,-9.165 c 0.733,-2.538 2.059,-3.347 3.68,-3.212 z m -33.651,4.014 c 0.105,-0.045 0.25,-0.026 0.535,0 0.38,0.034 1.034,0.194 1.74,0.602 l 49.306,28.433 c 2.947,1.702 6.021,6.973 6.021,10.37 v 85.232 l -9.433,-32.647 c 2.129,-7.149 1.818,-17.161 -1.473,-27.831 -5.511,-17.867 -17.387,-31.09 -27.229,-30.975 -0.656,0.008 -1.304,0.072 -1.94,0.201 -0.235,0.048 -0.441,0.135 -0.669,0.201 L 162.983,-6.829 v -21.073 c 0,-1.287 0.34,-1.916 0.535,-2.141 0.098,-0.113 0.163,-0.223 0.268,-0.268 l 0,0 z m -27.563,15.053 c 0.161,-0.179 0.717,0.226 1.137,0.469 l 49.172,28.098 c 3.323,1.898 7.406,7.025 8.296,10.102 l 24.753,85.701 c 0.205,0.76 -0.777,0.102 -1.07,-0.067 L 169.339,80.946 c -3.314,-1.894 -7.479,-7.111 -8.362,-10.169 l -24.753,-85.634 c -0.05,-0.218 -0.056,-0.341 -10e-4,-0.401 l 0,0 z m 28.7,33.584 -4.415,40.208 46.43,26.762 -42.015,-66.97 z m 84.831,45.225 -1.873,6.423 46.563,26.895 c -11.606,5.018 -21.895,3.934 -32.447,5.619 -6.027,0.963 -12.112,2.983 -17.797,7.761 -5.146,4.327 -9.903,10.96 -14.45,20.672 -6.356,-3.09 -11.868,-4.002 -16.658,-2.676 -5.546,1.537 -9.657,5.568 -13.446,10.236 -4.345,5.351 -8.51,11.694 -13.849,17.662 -4.052,4.056 -8.08,8.01 -12.912,11.105 L 89.794,119.28 c 11.386,-6.88 20.167,-17.154 31.042,-24.688 4.731,-3.333 9.198,-5.553 13.982,-6.087 4.904,-0.549 10.334,0.521 17.194,4.481 l 3.01,1.806 c 0.77,-1.791 1.601,-3.576 2.409,-5.352 -3.247,-1.713 -6.777,-4.027 -9.968,-5.353 -4.638,-1.924 -9.132,-2.273 -13.313,-1.806 -6.376,0.712 -12,3.619 -17.328,7.426 -10.654,7.616 -20.622,18.859 -34.654,26.962 l -15.789,9.433 104.165,60.145 48.103,-27.765 c 2.051,4.819 9.896,5.873 16.592,2.007 6.688,-3.862 10.187,-11.482 12.242,-18.665 l 68.975,-39.807 -66.702,-38.466 0,0 z"/>
      </g>
    </g>
  </g>
  <metadata>
    <rdf:RDF>
      <cc:Work>
        <dc:format>image/svg+xml</dc:format>
        <dc:type rdf:resource="http://purl.org/dc/dcmitype/StillImage"/>
        <cc:license rdf:resource="http://creativecommons.org/licenses/publicdomain/"/>
        <dc:publisher>
          <cc:Agent rdf:about="http://openclipart.org/">
            <dc:title>Open Clip Art Library</dc:title>
          </cc:Agent>
        </dc:publisher>
        <dc:title>OCAL Favorite folder Icon 2</dc:title>
        <dc:date>2011-05-14T10:57:14</dc:date>
        <dc:description>OCAL Favorite folder Icon  for saving OCAL cliparts (OCAL Logo from pianoBrad)</dc:description>
        <dc:source>http://openclipart.org/detail/138685/ocal-favorite-folder-icon-2-by-gsagri04</dc:source>
        <dc:creator>
          <cc:Agent>
            <dc:title>gsagri04</dc:title>
          </cc:Agent>
        </dc:creator>
        <dc:subject>
          <rdf:Bag>
            <rdf:li>Favorite</rdf:li>
            <rdf:li>Icon</rdf:li>
            <rdf:li>OCAL</rdf:li>
            <rdf:li>clip art</rdf:li>
            <rdf:li>clip_art</rdf:li>
            <rdf:li>clipart</rdf:li>
            <rdf:li>folder</rdf:li>
            <rdf:li>logo</rdf:li>
            <rdf:li>places</rdf:li>
            <rdf:li>png</rdf:li>
            <rdf:li>svg</rdf:li>
          </rdf:Bag>
        </dc:subject>
      </cc:Work>
      <cc:License rdf:about="http://creativecommons.org/licenses/publicdomain/">
        <cc:permits rdf:resource="http://creativecommons.org/ns#Reproduction"/>
        <cc:permits rdf:resource="http://creativecommons.org/ns#Distribution"/>
        <cc:permits rdf:resource="http://creativecommons.org/ns#DerivativeWorks"/>
      </cc:License>
    </rdf:RDF>
  </metadata>
</svg>
